<svg xmlns="http://www.w3.org/2000/svg" viewBox="0 0 100 100">
  <defs>
    <linearGradient id="logoGradient" x1="0%" y1="0%" x2="100%" y2="100%">
      <stop offset="0%" style="stop-color:#166534;stop-opacity:1" />
      <stop offset="50%" style="stop-color:#15803d;stop-opacity:1" />
      <stop offset="100%" style="stop-color:#16a34a;stop-opacity:1" />
    </linearGradient>
    <linearGradient id="goldGradient" x1="0%" y1="0%" x2="100%" y2="100%">
      <stop offset="0%" style="stop-color:#d97706;stop-opacity:1" />
      <stop offset="100%" style="stop-color:#fbbf24;stop-opacity:1" />
    </linearGradient>
  </defs>
  
  <circle cx="50" cy="50" r="45" fill="none" stroke="url(#logoGradient)" stroke-width="2" opacity="0.1"/>
  
  <path d="M50 15 L50 85" stroke="url(#logoGradient)" stroke-width="1.5" opacity="0.2"/>
  <path d="M15 50 L85 50" stroke="url(#logoGradient)" stroke-width="1.5" opacity="0.2"/>
  
  <g transform="translate(50, 50)">
    <path d="M0 -35 C15 -35 25 -25 25 -10 C25 5 15 15 0 15 C-15 15 -25 5 -25 -10 C-25 -25 -15 -35 0 -35 Z" 
          fill="url(#logoGradient)" opacity="0.9"/>
    
    <path d="M0 -25 C8 -25 12 -20 12 -12 C12 -5 8 0 0 0 C-8 0 -12 -5 -12 -12 C-12 -20 -8 -25 0 -25 Z" 
          fill="white" opacity="0.9"/>
    
    <path d="M0 -8 L0 5 L8 5 L0 12 L-8 5 L0 5 Z" 
          fill="url(#goldGradient)"/>
  </g>
  
  <text x="50" y="88" text-anchor="middle" font-family="Playfair Display, serif" font-size="12" font-weight="600" fill="#166534">
    CULTIVA100
  </text>
</svg>