<svg xmlns="http://www.w3.org/2000/svg" width="400" height="400">
  <defs>
    <linearGradient id="productBg6" x1="0%" y1="0%" x2="100%" y2="100%">
      <stop offset="0%" style="stop-color:#f0f9ff;stop-opacity:1" />
      <stop offset="100%" style="stop-color:#e0f2fe;stop-opacity:1" />
    </linearGradient>
  </defs>
  
  <rect width="400" height="400" fill="url(#productBg6)"/>
  
  <g transform="translate(200, 200)">
    <rect x="-80" y="-120" width="160" height="240" rx="16" fill="white" stroke="#e2e8f0" stroke-width="1"/>
    
    <rect x="-60" y="-100" width="120" height="16" rx="4" fill="#f0f9ff"/>
    
    <ellipse cx="0" cy="-30" rx="50" ry="70" fill="#f0f9ff" stroke="#0ea5e9" stroke-width="2"/>
    <ellipse cx="0" cy="-30" rx="35" ry="50" fill="#e0f2fe"/>
    
    <path d="M-20 -40 Q0 -20 -20 0" stroke="#0ea5e9" stroke-width="2" fill="none"/>
    <path d="M0 -50 Q15 -35 0 -20" stroke="#0ea5e9" stroke-width="2" fill="none"/>
    <path d="M20 -40 Q0 -20 20 0" stroke="#0ea5e9" stroke-width="2" fill="none"/>
    
    <rect x="-40" y="50" width="80" height="60" rx="4" fill="#f8fafc" stroke="#e2e8f0" stroke-width="1"/>
    <rect x="-30" y="60" width="60" height="12" rx="2" fill="#e0f2fe"/>
    <rect x="-30" y="80" width="40" height="12" rx="2" fill="#bae6fd"/>
    <rect x="-30" y="100" width="50" height="12" rx="2" fill="#7dd3fc"/>
    
    <text x="0" y="-130" font-family="Inter, sans-serif" font-size="10" fill="#0284c7" text-anchor="middle">Collagen</text>
  </g>
  
  <text x="200" y="380" font-family="Playfair Display, serif" font-size="16" font-weight="600" fill="#0284c7" text-anchor="middle">Collagen Peptides</text>
</svg>