<svg xmlns="http://www.w3.org/2000/svg" width="400" height="400">
  <defs>
    <linearGradient id="productBg4" x1="0%" y1="0%" x2="100%" y2="100%">
      <stop offset="0%" style="stop-color:#fef3c7;stop-opacity:1" />
      <stop offset="100%" style="stop-color:#fde68a;stop-opacity:1" />
    </linearGradient>
  </defs>
  
  <rect width="400" height="400" fill="url(#productBg4)"/>
  
  <g transform="translate(200, 200)">
    <rect x="-80" y="-120" width="160" height="240" rx="16" fill="white" stroke="#e2e8f0" stroke-width="1"/>
    
    <rect x="-60" y="-100" width="120" height="16" rx="4" fill="#fef3c7"/>
    
    <ellipse cx="0" cy="-30" rx="50" ry="70" fill="#fef3c7" stroke="#f59e0b" stroke-width="2"/>
    <ellipse cx="0" cy="-30" rx="35" ry="50" fill="#fde68a"/>
    
    <circle cx="-15" cy="-30" r="8" fill="#fbbf24"/>
    <circle cx="15" cy="-20" r="6" fill="#f59e0b"/>
    <circle cx="0" cy="-45" r="5" fill="#fcd34d"/>
    
    <rect x="-40" y="50" width="80" height="60" rx="4" fill="#f8fafc" stroke="#e2e8f0" stroke-width="1"/>
    <rect x="-30" y="60" width="60" height="12" rx="2" fill="#fde68a"/>
    <rect x="-30" y="80" width="40" height="12" rx="2" fill="#fcd34d"/>
    <rect x="-30" y="100" width="50" height="12" rx="2" fill="#fbbf24"/>
    
    <text x="0" y="-130" font-family="Inter, sans-serif" font-size="10" fill="#92400e" text-anchor="middle">Probiotic</text>
  </g>
  
  <text x="200" y="380" font-family="Playfair Display, serif" font-size="16" font-weight="600" fill="#92400e" text-anchor="middle">Probiotic Complex</text>
</svg>