<?xml version="1.0" standalone="no"?><!DOCTYPE svg PUBLIC "-//W3C//DTD SVG 1.1//EN" "http://www.w3.org/Graphics/SVG/1.1/DTD/svg11.dtd"><svg t="1780483341030" class="icon" viewBox="0 0 1024 1024" version="1.1" xmlns="http://www.w3.org/2000/svg" p-id="1712" xmlns:xlink="http://www.w3.org/1999/xlink" width="200" height="200"><path d="M937.254034 423.740952A390.095238 390.095238 0 0 1 704.659749 346.209524v352.060952A317.927619 317.927619 0 0 1 395.021653 1024 317.927619 317.927619 0 0 1 85.383558 698.270476a317.44 317.44 0 0 1 309.638095-325.241905 331.580952 331.580952 0 0 1 48.761905 3.900953v186.758095a137.020952 137.020952 0 0 0-48.761905-9.264762 141.897143 141.897143 0 0 0-138.483809 146.285714 141.897143 141.897143 0 0 0 138.483809 146.285715 141.897143 141.897143 0 0 0 137.996191-146.285715V0h172.617143a237.470476 237.470476 0 0 0 233.081904 243.809524v180.419047" fill="#606060" p-id="1713"></path></svg>