<?xml version="1.0" encoding="UTF-8"?>
<svg version="1.1" xmlns="http://www.w3.org/2000/svg" width="43" height="44">
<path d="M0 0 C14.19 0 28.38 0 43 0 C43 14.52 43 29.04 43 44 C28.81 44 14.62 44 0 44 C0 29.48 0 14.96 0 0 Z " fill="#F6F6F6" transform="translate(0,0)"/>
<path d="M0 0 C1.9921875 1.59375 1.9921875 1.59375 4 4 C4.3203125 7.09375 4.3203125 7.09375 4.125 10.5 C3.82093564 16.04057782 3.82093564 16.04057782 6 21 C6.38091797 20.06027344 6.38091797 20.06027344 6.76953125 19.1015625 C7.11371094 18.28429687 7.45789063 17.46703125 7.8125 16.625 C8.31716797 15.40683594 8.31716797 15.40683594 8.83203125 14.1640625 C10 12 10 12 13 10 C13.26484632 13.08987377 13.28518188 14.58410976 11.5 17.1875 C9.27394712 21.36134916 9.75683868 25.36192289 10 30 C9.01 29.67 8.02 29.34 7 29 C6.35224609 27.58460937 6.35224609 27.58460937 5.69140625 26.140625 C3.61086217 22.27744385 1.89871362 21.50198269 -2.0625 19.75 C-7.86754967 17.13245033 -7.86754967 17.13245033 -10 15 C-10 14.01 -10 13.02 -10 12 C-6.04179141 12.56545837 -3.3340947 13.80902348 0 16 C-0.16242187 15.45730469 -0.32484375 14.91460937 -0.4921875 14.35546875 C-1.08173628 11.62086939 -1.13246613 9.10856538 -1.125 6.3125 C-1.12757812 5.33925781 -1.13015625 4.36601562 -1.1328125 3.36328125 C-1 1 -1 1 0 0 Z " fill="#4F4B4B" transform="translate(15,7)"/>
<path d="M0 0 C0.33 0 0.66 0 1 0 C1.26484632 3.08987377 1.28518188 4.58410976 -0.5 7.1875 C-2.72605288 11.36134916 -2.24316132 15.36192289 -2 20 C-5 19 -5 19 -6.5625 16.0625 C-7.2740625 14.5465625 -7.2740625 14.5465625 -8 13 C-8.66 12.34 -9.32 11.68 -10 11 C-9.34 11 -8.68 11 -8 11 C-7.67 10.34 -7.34 9.68 -7 9 C-6.67 9.66 -6.34 10.32 -6 11 C-5.73445313 10.37351562 -5.46890625 9.74703125 -5.1953125 9.1015625 C-4.84210937 8.28429688 -4.48890625 7.46703125 -4.125 6.625 C-3.77695312 5.81289063 -3.42890625 5.00078125 -3.0703125 4.1640625 C-2 2 -2 2 0 0 Z " fill="#5E5A5A" transform="translate(27,17)"/>
<path d="M0 0 C2.5 0.125 2.5 0.125 3.5 1.125 C3.625 3.625 3.625 3.625 3.5 6.125 C2.5 7.125 2.5 7.125 0 7.25 C-2.5 7.125 -2.5 7.125 -3.5 6.125 C-3.625 3.625 -3.625 3.625 -3.5 1.125 C-2.5 0.125 -2.5 0.125 0 0 Z " fill="#A9A6A6" transform="translate(35.5,5.875)"/>
<path d="M0 0 C0.20086443 3.71599191 0.1519437 4.77208445 -2 8 C-2.66 8 -3.32 8 -4 8 C-4.36780384 3.46375267 -4.36780384 3.46375267 -2.5625 1.1875 C-1 0 -1 0 0 0 Z " fill="#514D4D" transform="translate(28,17)"/>
</svg>
