<?xml version="1.0" standalone="no"?><!DOCTYPE svg PUBLIC "-//W3C//DTD SVG 1.1//EN" "http://www.w3.org/Graphics/SVG/1.1/DTD/svg11.dtd"><svg t="1780485014506" class="icon" viewBox="0 0 1510 1024" version="1.1" xmlns="http://www.w3.org/2000/svg" p-id="1842" xmlns:xlink="http://www.w3.org/1999/xlink" width="294.921875" height="200"><path d="M866.926 758.183H703.811c-9.062 0-12.082 0-6.041-9.062 12.083-24.165 24.165-54.372 42.289-78.537 3.02-6.041 6.041-9.062 15.103-9.062H833.7c9.062 0 9.062-3.02 9.062-12.082v-277.9c0-9.062-3.02-12.083-12.083-9.062h-45.31c-9.061 0-12.082-3.02-12.082-9.062V277.9c0-9.062 3.02-12.083 12.083-12.083h208.425c6.04 0 9.061 0 9.061 9.062v78.537c0 6.041-3.02 9.062-9.061 9.062h-45.31c-9.062 0-12.083 3.02-12.083 12.082v277.9c0 6.041 3.02 9.062 9.062 9.062H1024c9.062 0 12.083 3.02 12.083 12.083v75.516c0 9.062-3.021 12.083-12.083 12.083-48.33-3.021-102.702-3.021-157.074-3.021zM302.065 459.139v211.445c0 15.103-3.02 33.227-12.083 48.33-18.124 30.207-45.31 39.269-81.557 36.248-36.248-3.02-57.393-21.144-66.454-54.371-9.062-33.228-9.062-27.186 21.144-33.228 12.083 0 27.186 6.042 39.268-3.02 6.042-6.042 3.021-21.145 3.021-36.248V232.59c0-9.062 3.02-12.083 12.083-12.083h72.495c9.062 0 12.083 3.021 12.083 12.083v226.549z" p-id="1843"></path><path d="M737.038 543.717c-12.082 21.144-21.144 45.31-33.227 66.454-6.041 15.103-15.103 18.124-27.186 18.124H604.13c-6.042 0-12.083 0-18.124-3.02-21.145-6.042-27.186-21.145-21.145-45.31 12.083-36.248 33.227-66.455 48.33-102.702 3.021-6.042 6.042-9.062 9.063-18.124H558.82c-24.165-6.042-36.248-21.145-24.165-48.33 9.062-27.187 24.165-57.393 39.268-81.558 15.104-27.186 27.186-60.413 45.31-90.62 3.02-6.041 6.041-9.062 15.103-9.062h75.517c9.061 0 9.061 3.021 6.04 9.062-18.123 39.269-39.268 75.516-57.392 114.785-3.02 3.02-3.02 6.041-6.04 12.083s0 9.061 6.04 12.082c6.042 3.02 6.042-3.02 9.062-6.041 3.021-6.041 6.042-9.062 15.104-9.062h75.516c9.062 0 9.062 3.02 6.041 9.062-24.165 48.33-48.33 99.681-72.495 148.012-9.062 18.124-6.042 24.165 15.103 24.165h30.206zM60.413 712.873C42.289 676.625 24.165 643.398 6.041 607.15c-3.02-3.02-3.02-6.04 0-9.062 12.083-27.185 12.083-57.392 12.083-90.619 3.02-48.33 6.041-93.64 9.062-138.95 0-6.041 3.02-9.062 9.062-9.062h81.557c6.042 0 9.062 0 9.062 9.062-6.041 69.475-9.062 138.95-18.124 211.446-6.04 45.31-21.144 90.62-51.35 126.867 6.04 0 3.02 3.02 3.02 6.041zM419.87 359.457h39.269c9.062 0 9.062 3.02 12.082 12.083 3.02 63.433 9.062 126.867 15.103 190.3 0 6.042 0 15.104 3.021 21.145 6.041 12.083 3.02 24.165-3.02 39.269-12.083 24.165-24.166 54.371-39.269 78.537-3.02 9.062-6.041 9.062-12.083 0-21.144-36.248-36.247-69.475-45.31-111.764-9.061-39.269-9.061-78.537-12.082-117.806-3.02-36.248-6.041-66.454-9.062-102.702 0-9.062 0-12.082 12.083-12.082 12.082 6.04 24.165 3.02 39.268 3.02z m154.053 398.726c-18.124 0-48.33 3.02-69.475-3.02-9.062-3.021-12.082-6.042-6.04-12.083 15.102-27.186 27.185-54.372 42.288-81.558 3.02-3.02 3.02-9.062 9.062-6.041 21.145 9.062 48.33 6.041 72.496 6.041h63.433c6.042 0 9.062 3.02 6.042 9.062-15.104 27.186-27.186 54.372-42.29 84.578-3.02 6.042-6.04 6.042-12.082 6.042-18.124-3.021-36.248-3.021-63.434-3.021z m860.885-398.726c-33.227 0-33.227 0-33.227-33.227 0-9.062 0-21.144 3.02-33.227 6.042-24.165 27.187-39.268 57.393-36.248 21.145 3.02 42.29 24.165 42.29 51.351s-18.125 45.31-45.31 48.33c-9.062 3.021-15.104 3.021-24.166 3.021zM1241.487 652.46v96.66c0 9.063-3.02 12.084-12.083 12.084h-75.516c-9.062 0-12.083-3.021-12.083-12.083v-190.3c0-9.063-3.02-12.084-12.082-12.084h-72.496c-9.062 0-12.082 0-12.082-9.061v-78.537c0-9.062 3.02-9.062 12.082-9.062h75.516c9.062 0 12.083-3.021 9.062-12.083v-60.413c0-9.062-3.02-9.062-12.082-9.062h-45.31c-6.041 0-9.062 0-9.062-9.062V280.92c0-6.04 3.02-9.062 9.062-9.062h45.31c6.041 0 9.062-3.02 9.062-9.062 0-21.144 0-21.144 24.165-21.144h63.433c6.042 0 9.062 3.02 9.062 9.062 0 21.144 0 21.144 21.145 21.144 27.186 0 54.372 6.042 75.516 18.124 33.227 18.124 45.31 51.351 45.31 84.578v63.434c0 9.062 3.02 12.083 12.083 12.083 36.247 0 63.433 9.062 84.578 39.268 12.082 15.103 18.124 39.269 18.124 57.392v126.868c0 48.33-27.186 81.557-75.517 90.62-18.124 3.02-42.289 3.02-60.413-3.021-33.227-9.062-54.371-39.269-57.392-72.496 0-9.062 3.02-6.041 9.062-6.041h78.537c9.062 0 12.082-3.021 12.082-12.083v-81.557c0-21.145-12.082-36.248-36.247-36.248h-120.826c-6.042 0-9.062 3.02-9.062 9.062 9.062 24.165 9.062 54.371 9.062 90.62z m51.35-250.714c0-42.289 3.021-42.289-45.309-42.289-6.041 0-9.062 3.02-9.062 9.062v66.454c0 6.042 3.02 9.062 9.062 9.062h36.248c6.041 0 9.062-3.02 9.062-9.062v-33.227z" p-id="1844"></path></svg>